HIERARCHY
ROOT Hips
{
	OFFSET 0.000000 0.000000 0.000000
	CHANNELS 6 Xposition Yposition Zposition Zrotation Yrotation Xrotation 
	JOINT LowerBack
	{
		OFFSET 0.000000 0.000000 0.000000
		CHANNELS 3 Zrotation Yrotation Xrotation
		JOINT Spine
		{
			OFFSET 0.028270 2.035590 -0.193380
			CHANNELS 3 Zrotation Yrotation Xrotation
			JOINT Spine1
			{
				OFFSET 0.056720 2.048850 -0.042750
				CHANNELS 3 Zrotation Yrotation Xrotation
				JOINT Neck
				{
					OFFSET 0.000000 0.000000 0.000000
					CHANNELS 3 Zrotation Yrotation Xrotation
					JOINT Neck1
					{
						OFFSET -0.054170 1.746240 0.172020
						CHANNELS 3 Zrotation Yrotation Xrotation
						JOINT Head
						{
							OFFSET 0.104070 1.761360 -0.123970
							CHANNELS 3 Zrotation Yrotation Xrotation
							End Site
							{
								OFFSET 0.000000 0.000000 0.000000
							}
						}
					}
				}
				JOINT LeftShoulder
				{
					OFFSET 0.000000 0.000000 0.000000
					CHANNELS 3 Zrotation Yrotation Xrotation
					JOINT LeftArm
					{
						OFFSET 3.362410 1.200890 -0.311210
						CHANNELS 3 Zrotation Yrotation Xrotation
						JOINT LeftForeArm
						{
							OFFSET 4.983000 -0.000000 -0.000000
							CHANNELS 3 Zrotation Yrotation Xrotation
							JOINT LeftHand
							{
								OFFSET 3.483560 -0.000000 -0.000000
								CHANNELS 3 Zrotation Yrotation Xrotation
								JOINT LeftFingerBase
								{
									OFFSET 0.000000 0.000000 0.000000
									CHANNELS 3 Zrotation Yrotation Xrotation
									JOINT LeftHandIndex1
									{
										OFFSET 0.715260 -0.000000 -0.000000
										CHANNELS 3 Zrotation Yrotation Xrotation
										End Site
										{
											OFFSET 0.000000 0.000000 0.000000
										}
									}
								}
								JOINT LThumb
								{
									OFFSET 0.000000 0.000000 0.000000
									CHANNELS 3 Zrotation Yrotation Xrotation
									End Site
									{
										OFFSET 0.000000 0.000000 0.000000
									}
								}
							}
						}
					}
				}
				JOINT RightShoulder
				{
					OFFSET 0.000000 0.000000 0.000000
					CHANNELS 3 Zrotation Yrotation Xrotation
					JOINT RightArm
					{
						OFFSET -3.136600 1.374050 -0.404650
						CHANNELS 3 Zrotation Yrotation Xrotation
						JOINT RightForeArm
						{
							OFFSET -5.241900 -0.000000 -0.000000
							CHANNELS 3 Zrotation Yrotation Xrotation
							JOINT RightHand
							{
								OFFSET -3.444170 -0.000000 -0.000000
								CHANNELS 3 Zrotation Yrotation Xrotation
								JOINT RightFingerBase
								{
									OFFSET 0.000000 0.000000 0.000000
									CHANNELS 3 Zrotation Yrotation Xrotation
									JOINT RightHandIndex1
									{
										OFFSET -0.622530 -0.000000 -0.000000
										CHANNELS 3 Zrotation Yrotation Xrotation
										End Site
										{
											OFFSET 0.000000 0.000000 0.000000
										}
									}
								}
								JOINT RThumb
								{
									OFFSET 0.000000 0.000000 0.000000
									CHANNELS 3 Zrotation Yrotation Xrotation
									End Site
									{
										OFFSET 0.000000 0.000000 0.000000
									}
								}
							}
						}
					}
				}
			}
		}
	}
}
}
MOTION
Frames: 15
Frame Time: 0.008333
3.166724 16.501289 6.288107 7.112237 25.871554 1.862905 0.605243 -5.994055 -2.090963 -0.222905 -6.192444 -2.215708 -5.617190 -6.157610 3.929702 9.816549 -20.047724 -11.066421 -2.592218 -0.153294 -0.861610 0.000000 0.000000 0.000000 1.061627 18.329097 1.959364 -22.954022 0.076154 -10.164903 -1.691341 -54.281761 0.010284 -2.106290 -0.938005 0.020663 -0.093699 0.185863 -0.000000 0.000000 0.000000 0.000000 0.000000 0.000000 0.000000 18.372070 -19.155219 -0.720046 72.178631 -21.676699 -31.162763 4.214576 7.730411 0.013359 -4.388172 5.875487 -0.235293 0.162227 -0.050681 0.000000 0.000000 0.000000 0.000000 0.000000 0.000000 0.000000 
3.188184 16.495236 6.444071 7.066946 25.326300 1.823126 0.692743 -5.874101 -2.003089 -0.227756 -6.074766 -2.216423 -5.670016 -6.038488 3.879791 9.816736 -19.802202 -11.111509 -2.599915 -0.153267 -0.875050 0.000000 0.000000 0.000000 1.129372 18.298857 1.956688 -23.300542 0.420817 -10.080431 -1.658241 -55.232767 0.011580 -2.487448 -1.049654 0.026848 -0.088682 0.185807 -0.000000 0.000000 0.000000 0.000000 0.000000 0.000000 0.000000 18.281971 -18.787040 -0.634519 72.466896 -21.018977 -31.039031 4.177622 7.621235 0.013222 -4.602682 5.942568 -0.249192 0.161617 -0.051636 0.000000 0.000000 0.000000 0.000000 0.000000 0.000000 0.000000 
3.207483 16.486559 6.597091 7.040197 24.744242 1.800467 0.756134 -5.745065 -1.897774 -0.238970 -5.945865 -2.214255 -5.725562 -5.908018 3.827198 9.811835 -19.554092 -11.152030 -2.608891 -0.153409 -0.887545 0.000000 0.000000 0.000000 1.186126 18.256160 1.956124 -23.690770 0.813295 -9.929088 -1.634131 -56.052515 0.012438 -2.770099 -1.114541 0.031339 -0.085548 0.184215 -0.000000 0.000000 0.000000 0.000000 0.000000 0.000000 0.000000 18.187837 -18.409811 -0.549973 72.768885 -20.256104 -30.739053 4.140557 7.613706 0.013058 -4.759727 5.999300 -0.259888 0.160572 -0.052630 0.000000 0.000000 0.000000 0.000000 0.000000 0.000000 0.000000 
3.224880 16.475974 6.747433 7.030632 24.123527 1.796885 0.796927 -5.608125 -1.783653 -0.255747 -5.807185 -2.210674 -5.783303 -5.767721 3.772607 9.800565 -19.303103 -11.184462 -2.620160 -0.153876 -0.898121 0.000000 0.000000 0.000000 1.226884 18.208549 1.955730 -24.123591 1.254107 -9.706848 -1.617999 -56.745945 0.012825 -2.941964 -1.132667 0.033734 -0.084420 0.181086 -0.000000 0.000000 0.000000 0.000000 0.000000 0.000000 0.000000 18.093575 -18.023801 -0.469642 73.069033 -19.390357 -30.278177 4.104758 7.698111 0.012852 -4.846025 6.038167 -0.266083 0.159067 -0.053674 0.000000 0.000000 0.000000 0.000000 0.000000 0.000000 0.000000 
3.240709 16.464330 6.895349 7.034491 23.460926 1.813117 0.818465 -5.464452 -1.669415 -0.276932 -5.660300 -2.207281 -5.842762 -5.619233 3.716502 9.783042 -19.048182 -11.205678 -2.634794 -0.154824 -0.905880 0.000000 0.000000 0.000000 1.248833 18.162322 1.953508 -24.603698 1.745583 -9.414515 -1.609095 -57.321051 0.012747 -3.000335 -1.105117 0.033537 -0.085286 0.176435 -0.000000 0.000000 0.000000 0.000000 0.000000 0.000000 0.000000 18.004258 -17.628338 -0.396442 73.351719 -18.426927 -29.667323 4.071187 7.868458 0.012595 -4.855471 6.051679 -0.267177 0.157109 -0.054755 0.000000 0.000000 0.000000 0.000000 0.000000 0.000000 0.000000 
3.255192 16.452493 7.041138 7.045871 22.753858 1.849580 0.825521 -5.314951 -1.563608 -0.301183 -5.506611 -2.205749 -5.903702 -5.464002 3.659195 9.761274 -18.788210 -11.213401 -2.653787 -0.156388 -0.910121 0.000000 0.000000 0.000000 1.250817 18.122522 1.947610 -25.139089 2.291737 -9.057826 -1.606884 -57.787189 0.012242 -2.949889 -1.034950 0.031046 -0.088027 0.170304 -0.000000 0.000000 0.000000 0.000000 0.000000 0.000000 0.000000 17.926256 -17.222323 -0.332717 73.601897 -17.372871 -28.907704 4.040279 8.124329 0.012283 -4.790817 6.032680 -0.262768 0.154745 -0.055831 -0.000000 0.000000 0.000000 0.000000 0.000000 0.000000 0.000000 
3.268646 16.441352 7.185021 7.056321 22.000589 1.905041 0.826304 -5.160795 -1.474298 -0.326358 -5.348006 -2.207245 -5.965434 -5.303935 3.602851 9.735455 -18.511071 -11.205544 -2.677412 -0.158620 -0.910274 0.000000 0.000000 0.000000 1.231090 18.111692 1.936175 -25.740073 2.864548 -8.642142 -1.612149 -58.134079 0.011376 -2.799555 -0.930003 0.026762 -0.092473 0.162856 0.000000 0.000000 0.000000 0.000000 0.000000 0.000000 0.000000 17.858600 -16.795606 -0.281000 73.811641 -16.220325 -28.147756 4.013456 8.409009 0.012005 -4.626312 6.021032 -0.253458 0.151834 -0.057342 0.000000 0.000000 0.000000 0.000000 0.000000 0.000000 0.000000 
3.280939 16.431521 7.327323 7.066601 21.204769 1.981747 0.813814 -5.003300 -1.404899 -0.353788 -5.185471 -2.213166 -6.027614 -5.140119 3.544558 9.715321 -18.243144 -11.182913 -2.705842 -0.161551 -0.906270 0.000000 0.000000 0.000000 1.197263 18.091264 1.918360 -26.415346 3.530382 -8.184395 -1.622328 -58.407009 0.010221 -2.568991 -0.789539 0.021283 -0.098184 0.154028 0.000000 0.000000 0.000000 0.000000 0.000000 0.000000 0.000000 17.817354 -16.372961 -0.239755 73.964299 -14.998466 -27.115113 3.987233 8.821909 0.011615 -4.443542 5.943015 -0.240447 0.148876 -0.058411 0.000000 0.000000 0.000000 0.000000 0.000000 0.000000 0.000000 
3.292429 16.423640 7.468065 7.061681 20.367884 2.075243 0.804721 -4.843585 -1.361133 -0.379595 -5.021373 -2.223922 -6.089253 -4.974890 3.488057 9.697614 -17.955182 -11.144031 -2.738735 -0.165146 -0.897826 0.000000 0.000000 0.000000 1.146729 18.105073 1.893243 -27.177019 4.217523 -7.690182 -1.640322 -58.567143 0.008890 -2.274471 -0.628708 0.015610 -0.104940 0.144166 -0.000000 0.000000 0.000000 0.000000 0.000000 0.000000 0.000000 17.791368 -15.928536 -0.211467 74.065496 -13.691222 -26.114190 3.964382 9.257818 0.011299 -4.186167 5.886895 -0.224733 0.145530 -0.059978 0.000000 0.000000 0.000000 0.000000 0.000000 0.000000 0.000000 
3.303072 16.417995 7.607376 7.039498 19.497899 2.184855 0.797469 -4.683087 -1.343519 -0.403964 -4.857136 -2.239772 -6.149561 -4.809721 3.432731 9.687080 -17.652938 -11.089737 -2.775496 -0.169335 -0.885066 0.000000 0.000000 0.000000 1.085499 18.142310 1.860880 -28.031895 4.935293 -7.171760 -1.666001 -58.621842 0.007482 -1.937481 -0.454961 0.010441 -0.112329 0.133422 -0.000000 0.000000 0.000000 0.000000 0.000000 0.000000 0.000000 17.783991 -15.468813 -0.195063 74.115431 -12.313774 -25.089614 3.943345 9.744124 0.011043 -3.887886 5.843551 -0.207518 0.141994 -0.061864 0.000000 0.000000 0.000000 0.000000 0.000000 0.000000 0.000000 
3.312856 16.414748 7.745309 6.996747 18.603304 2.309427 0.793144 -4.523089 -1.351291 -0.426397 -4.694160 -2.260591 -6.207170 -4.646057 3.378560 9.686246 -17.346104 -11.022348 -2.814570 -0.173944 -0.868530 0.000000 0.000000 0.000000 1.014371 18.194092 1.821719 -28.980746 5.687795 -6.640660 -1.699455 -58.575246 0.006087 -1.580420 -0.275449 0.006174 -0.119950 0.121941 -0.000000 0.000000 0.000000 0.000000 0.000000 0.000000 0.000000 17.793166 -15.004869 -0.188962 74.114538 -10.873234 -23.987268 3.922490 10.295802 0.010845 -3.582984 5.814096 -0.190701 0.138483 -0.063966 0.000000 0.000000 0.000000 0.000000 0.000000 0.000000 0.000000 
3.321720 16.413765 7.881856 6.933890 17.694525 2.446466 0.790410 -4.364627 -1.381349 -0.447135 -4.533409 -2.285705 -6.261259 -4.484878 3.325491 9.694223 -17.020127 -10.941022 -2.855397 -0.178903 -0.848067 0.000000 0.000000 0.000000 0.940425 18.267563 1.777142 -30.025801 6.443719 -6.100247 -1.742386 -58.406013 0.004786 -1.222000 -0.101197 0.003108 -0.127517 0.109999 -0.000000 0.000000 0.000000 0.000000 0.000000 0.000000 0.000000 17.812330 -14.523508 -0.192832 74.078989 -9.387363 -22.898778 3.901894 10.904690 0.010756 -3.265117 5.823369 -0.174480 0.134949 -0.066544 0.000000 0.000000 0.000000 0.000000 0.000000 0.000000 0.000000 
3.329666 16.414822 8.017024 6.852703 16.781512 2.594521 0.786754 -4.208531 -1.429553 -0.466389 -4.375479 -2.314305 -6.310043 -4.326838 3.273221 9.710371 -16.687985 -10.848787 -2.895672 -0.183961 -0.824449 0.000000 0.000000 0.000000 0.861462 18.350849 1.728425 -31.157922 7.205326 -5.555944 -1.794927 -58.115953 0.003633 -0.881505 0.063004 0.001340 -0.134714 0.097705 -0.000000 0.000000 0.000000 0.000000 0.000000 0.000000 0.000000 17.833930 -14.039183 -0.204538 74.013357 -7.863125 -21.756066 3.879773 11.585897 0.010765 -2.966863 5.871478 -0.160357 0.131608 -0.069492 0.000000 0.000000 0.000000 0.000000 0.000000 0.000000 0.000000 
3.336720 16.417528 8.150794 6.757848 15.873213 2.751550 0.778460 -4.055009 -1.490405 -0.484821 -4.220227 -2.345383 -6.352297 -4.171833 3.220985 9.731340 -16.345549 -10.746043 -2.934156 -0.188981 -0.797850 0.000000 0.000000 0.000000 0.779407 18.442045 1.677476 -32.369118 7.954956 -5.007222 -1.858171 -57.693068 0.002670 -0.575131 0.211813 0.000669 -0.141335 0.085216 -0.000000 0.000000 0.000000 0.000000 0.000000 0.000000 0.000000 17.848439 -13.548418 -0.223108 73.929782 -6.320001 -20.566969 3.855333 12.349830 0.010877 -2.695873 5.964370 -0.148432 0.128514 -0.072865 0.000000 0.000000 0.000000 0.000000 0.000000 0.000000 0.000000 
3.342887 16.421469 8.283205 6.655294 14.975876 2.915429 0.761239 -3.903585 -1.558437 -0.503176 -4.066744 -2.377955 -6.386671 -4.019002 3.167933 9.752825 -15.995054 -10.634226 -2.969292 -0.193794 -0.768706 0.000000 0.000000 0.000000 0.692943 18.536480 1.626033 -33.647047 8.682026 -4.451689 -1.932694 -57.131716 0.001906 -0.316328 0.343520 0.000794 -0.147230 0.072622 -0.000000 0.000000 0.000000 0.000000 0.000000 0.000000 0.000000 17.845610 -13.053600 -0.247343 73.836202 -4.774593 -19.305034 3.827371 13.210081 0.011076 -2.464856 6.100268 -0.139302 0.125756 -0.076640 0.000000 0.000000 0.000000 0.000000 0.000000 0.000000 0.000000 
